<svg width="50" height="50" viewBox="0 0 50 50" fill="none" xmlns="http://www.w3.org/2000/svg">
<path d="M16.2563 30.7344L23.5714 26.2745V16.9687" stroke="white" stroke-width="1.5" stroke-linecap="round" stroke-linejoin="round"/>
<path d="M22.9992 43.0075C13.3131 43.011 5.35943 35.3519 4.99768 25.6725C4.63592 15.9932 11.9957 7.76171 21.655 7.04223C31.3144 6.32274 39.8124 13.373 40.8886 22.9991" stroke="white" stroke-width="1.5" stroke-linecap="round" stroke-linejoin="round"/>
<path d="M39.6721 35.6704L36.3387 39.0058L34.3379 37.005" stroke="white" stroke-width="1.5" stroke-linecap="round" stroke-linejoin="round"/>
<path fill-rule="evenodd" clip-rule="evenodd" d="M41.0066 45.0083H33.0033C30.7933 45.0083 29.0016 43.2167 29.0016 41.0066V33.0033C29.0016 30.7933 30.7933 29.0016 33.0033 29.0016H41.0066C43.2167 29.0016 45.0083 30.7933 45.0083 33.0033V41.0066C45.0083 43.2167 43.2167 45.0083 41.0066 45.0083Z" stroke="white" stroke-width="1.5" stroke-linecap="round" stroke-linejoin="round"/>
</svg>
